<?xml version="1.0" encoding="UTF-8"?>
<svg id="Capa_3" data-name="Capa 3" xmlns="http://www.w3.org/2000/svg" viewBox="0 0 513 514">
  <defs>
    <style>
      .cls-1 {
        fill: #000;
      }
    </style>
  </defs>
  <path class="cls-1" d="m241,1c10.67,0,21.33,0,32,0,1.28.28,2.55.72,3.85.82,38.64,2.89,74.94,13.73,108.17,33.58,67.81,40.52,109.46,99.66,124.06,177.48,1.74,9.29,2.64,18.74,3.93,28.12v32c-.28,1.29-.73,2.56-.83,3.86-3.38,44.07-17.03,84.74-41.77,121.31-40.79,60.31-97.1,97.47-168.82,110.85-9.45,1.76-19.05,2.67-28.58,3.97h-32c-1.28-.28-2.54-.72-3.84-.83-50.99-4.06-96.9-21.54-137.1-53.14-51.73-40.67-83.67-93.5-95.23-158.41-1.63-9.14-2.57-18.41-3.83-27.62,0-10.67,0-21.33,0-32,.74-6.09,1.37-12.19,2.23-18.26,7.33-52.06,28.26-97.93,63.56-136.89C106.33,42.2,155.21,14.95,213.4,4.86c9.15-1.59,18.4-2.59,27.6-3.86Zm-121.03,255.75c.66,21.53.73,43.21,2.1,64.81,2.53,39.8,30.59,67.95,70.38,70.38,42.93,2.62,85.93,2.64,128.86.01,40.16-2.46,68.19-30.51,70.63-70.67,2.61-42.93,2.62-85.94-.01-128.87-2.44-39.82-30.54-67.92-70.4-70.36-43.09-2.64-86.26-2.63-129.36.02-39.48,2.43-67.55,30.61-70.1,70.13-1.38,21.43-1.45,42.94-2.11,64.55Z"/>
  <path class="cls-1" d="m256.7,145.97c18.99,0,37.98-.17,56.97.11,5.61.08,11.32.96,16.78,2.3,20.69,5.06,33.87,20.14,36.49,41.89,1.09,9.08,1.77,18.27,1.76,27.4-.03,32.32-.27,64.64-.84,96.96-.11,6.4-1.33,12.99-3.24,19.12-6.29,20.21-20.99,31.43-41.43,32.97-24.54,1.86-49.25,1.93-73.89,2.05-18.64.09-37.4.19-55.9-1.73-29.85-3.09-46.38-20.71-47.09-50.85-.93-39.46-.36-78.95-.09-118.43.04-5.89,1.38-11.96,3.15-17.63,6.17-19.77,20.45-30.94,40.46-32.87,22.17-2.14,66.86-1.88,66.87-1.3Zm70.36,111.22c.06-38.74-31.02-70.11-69.6-70.25-38.99-.14-70.44,31.02-70.5,69.85-.06,38.71,31.06,70.13,69.61,70.24,39.02.12,70.43-31,70.5-69.85Zm19.1-73.09c0-9.06-7.01-16.16-16.03-16.24-9.3-.09-16.55,7.05-16.53,16.27.01,9.03,7.05,16.17,16.06,16.29,9.22.13,16.5-7.08,16.5-16.32Z"/>
  <path class="cls-1" d="m256.4,302.43c-25.3-.48-45.29-21.02-44.82-46.05.48-25.31,21.01-45.29,46.05-44.81,25.32.49,45.36,21.07,44.82,46.04-.54,25.37-21.01,45.29-46.06,44.82Z"/>
</svg>