<?xml version="1.0" encoding="UTF-8"?>
<svg id="Capa_4" data-name="Capa 4" xmlns="http://www.w3.org/2000/svg" viewBox="0 0 513 514">
  <defs>
    <style>
      .cls-1 {
        fill: #000;
      }
    </style>
  </defs>
  <path class="cls-1" d="m257.38.78c141.1.29,256.48,116.06,255.62,256.47-.87,141.49-115.39,255.83-255.93,255.53C115.96,512.49.58,396.72,1.45,256.31,2.32,114.82,116.83.49,257.38.78Zm23.04,224.28v-24.95h-57.44v161.94h61.8c0-2.59,0-4.81,0-7.04,0-22.81-.32-45.63.17-68.43.19-8.81,1.3-17.83,3.63-26.31,2.94-10.68,12.94-16.16,24.24-15.08,10.8,1.04,16.18,6.38,18.16,18.55.66,4.06.84,8.24.85,12.37.07,26.34.04,52.67.04,79.01v6.9h61.74c.3-.76.57-1.14.57-1.51-.12-37.73.22-75.48-.64-113.2-.32-13.98-4.86-27.07-15.55-37.53-18.62-18.21-59.39-17.65-79.19-1.43-6.04,4.95-11.58,10.5-18.39,16.72Zm-98.1,137.14v-162.07h-61.4v162.07h61.4Zm-31.03-188.58c17.38-.11,31.35-13.01,31.21-28.83-.14-15.69-14.6-28.7-31.7-28.53-17.22.17-31.41,13.38-31.2,29.02.21,15.86,14.29,28.45,31.7,28.34Z"/>
</svg>