<?xml version="1.0" encoding="UTF-8"?>
<svg id="Capa_2" data-name="Capa 2" xmlns="http://www.w3.org/2000/svg" viewBox="0 0 513 514">
  <defs>
    <style>
      .cls-1 {
        fill: #000;
      }
    </style>
  </defs>
  <path class="cls-1" d="m257.87,3c40.62.22,79.26,8.48,115.52,27.08,29.75,15.26,54.89,36.29,76.85,61.3,26.22,29.86,44.85,63.75,54.32,102.5,4.42,18.08,6.72,36.33,5.88,55.02-.58,12.99.56,26.07-.2,39.04-1.78,30.15-11.09,58.28-25.15,84.8-19.94,37.62-46.22,69.95-81.25,94.67-34.34,24.23-72.71,37.6-114.3,42.44-27.71,3.22-55.29,3.05-82.75-2.05-46.22-8.59-86.06-29.81-120.11-61.91-24.03-22.65-44.58-48.06-59.2-77.92-13.45-27.49-20.88-56.56-23.35-87.02-2.46-30.41-.46-60.42,7.27-89.98,9.5-36.31,27-68.42,51.29-96.85,24.12-28.23,52.35-51.33,86.07-67.35,25.4-12.07,52.13-19.39,80.12-21.92,9.64-.87,19.32-1.25,28.98-1.85Zm-24.37,135.17c-.03-.44-45.51.82-68.16,2.7-22.36,1.86-44.38,6.01-65.86,12.73-10.61,3.32-17.24,11.21-17.78,21.16-.92,17.27,13.74,28.91,31.32,24.28,27.02-7.13,54.4-11.42,82.32-12.97,48.91-2.72,97.01,2.06,144.34,14.53,22.9,6.03,44.65,14.93,65.53,26.17,5.3,2.85,11.84,4.86,17.77,4.78,10.55-.15,18.81-8.39,20.88-18.47,2.17-10.56-2.3-20.06-12.71-25.94-26.14-14.76-53.85-25.73-82.84-33.4-37.61-9.96-75.98-14.52-114.81-15.56Zm-17.05,126.95c34.26.49,70.96,5.46,106.59,17.22,18.76,6.19,36.52,14.54,53.78,24.12,4.22,2.34,9.62,3.83,14.39,3.63,8.57-.37,15.35-7.29,16.89-15.28,1.73-8.94-1.85-16.58-10.55-21.82-25.77-15.51-53.32-26.97-82.4-34.35-47.8-12.13-96.32-17.16-145.42-10.23-18.94,2.68-37.67,7.1-56.3,11.54-10.87,2.59-16.45,12.76-14.2,23.12,2.21,10.2,10.97,16.24,22.1,15.09,2.51-.26,5.01-.92,7.45-1.6,27.65-7.72,55.86-11.28,87.68-11.45Zm-2.89,43.61c-24.52.39-48.8,3.08-72.89,7.58-6.83,1.28-13.75,2.48-20.31,4.66-8.45,2.81-12.25,10.15-10.32,17.95,2.14,8.63,8.17,12.79,17.41,11.96,1.86-.17,3.71-.45,5.54-.82,37.1-7.61,74.42-12.08,112.38-8.64,27.77,2.52,54.67,8.3,79.96,20.45,9.94,4.77,19.68,9.99,29.79,14.38,8.05,3.49,16.55.08,19.99-7.08,3.81-7.92,1.38-17.05-6.67-20.99-17.06-8.34-34.05-17.04-51.75-23.81-33.11-12.66-67.86-16.29-103.14-15.64Z"/>
</svg>