<?xml version="1.0" encoding="UTF-8"?>
<svg id="Capa_5" data-name="Capa 5" xmlns="http://www.w3.org/2000/svg" viewBox="0 0 513 514">
  <defs>
    <style>
      .cls-1 {
        fill: #000;
      }
    </style>
  </defs>
  <path class="cls-1" d="m241,1c10.67,0,21.33,0,32,0,1.28.28,2.55.72,3.85.82,38.46,2.89,74.6,13.64,107.73,33.34,68.09,40.49,109.83,99.72,124.5,177.72,1.75,9.29,2.64,18.74,3.93,28.12v32c-.28,1.29-.73,2.56-.83,3.86-3.03,39.67-14.39,76.81-35.15,110.74-40.53,66.24-99.02,106.93-175.44,121.42-9.44,1.79-19.05,2.67-28.58,3.97h-32c-1.28-.28-2.54-.72-3.84-.83-50.99-4.06-96.9-21.54-137.1-53.14-51.73-40.67-83.67-93.5-95.23-158.41-1.63-9.14-2.57-18.41-3.83-27.62,0-10.67,0-21.33,0-32,.74-6.09,1.37-12.2,2.23-18.28,7.33-52.06,28.26-97.93,63.56-136.89C106.33,42.19,155.21,14.95,213.4,4.86c9.15-1.59,18.4-2.59,27.6-3.86Zm-9.09,217.5c-9.23.48-18.23.22-27,1.52-48.26,7.15-83.24,54.02-76.71,102.32,6.11,45.18,41.65,78.13,87.28,80.91,50.28,3.06,95.01-36.93,96.54-87.36,1.01-33.13.49-66.31.66-99.46,0-1.9,0-3.79,0-6.57,22.77,15.45,46.8,23.38,73.7,23.38v-50.5c-43.68-4.74-67.59-28.8-72.22-72.23h-50.55v6.58c0,62.98,0,125.97-.02,188.95,0,3.16-.08,6.34-.39,9.48-2.17,22.04-20.47,38.88-42.61,39.3-22.29.43-40.88-16.01-44.04-38.92-2.88-20.89,11.42-42,32.61-46.82,7.24-1.65,14.99-1.03,22.75-1.46v-49.12Z"/>
</svg>